<?xml version="1.0" encoding="UTF-8"?><svg id="Layer_1" xmlns="http://www.w3.org/2000/svg" viewBox="0 0 244.95 113.18"><defs><style>.cls-1{fill:#ed225d;stroke-width:0px;}</style></defs><path class="cls-1" d="m13.73,27.22v8h.36c.72-1.11,1.65-2.25,2.81-3.4,1.15-1.15,2.57-2.19,4.24-3.1,1.67-.91,3.56-1.67,5.67-2.27,2.11-.6,4.48-.9,7.1-.9,4.06,0,7.8.78,11.22,2.33,3.42,1.56,6.37,3.68,8.84,6.39,2.47,2.71,4.38,5.89,5.73,9.55,1.35,3.66,2.03,7.6,2.03,11.82s-.66,8.18-1.97,11.88c-1.31,3.7-3.19,6.92-5.61,9.67-2.43,2.75-5.37,4.94-8.83,6.57-3.46,1.63-7.38,2.45-11.76,2.45-4.06,0-7.78-.84-11.16-2.51-3.39-1.67-5.99-3.94-7.82-6.81h-.24v36.29H0V27.22h13.73Zm33.43,28.41c0-2.23-.34-4.44-1.01-6.63-.68-2.19-1.69-4.16-3.04-5.91-1.35-1.75-3.06-3.16-5.13-4.24-2.07-1.07-4.5-1.61-7.28-1.61-2.63,0-4.98.56-7.04,1.67-2.07,1.12-3.84,2.55-5.31,4.3-1.47,1.75-2.59,3.74-3.34,5.97-.76,2.23-1.13,4.46-1.13,6.69s.38,4.44,1.13,6.62c.76,2.19,1.87,4.16,3.34,5.91,1.47,1.75,3.24,3.16,5.31,4.24,2.07,1.08,4.42,1.61,7.04,1.61,2.78,0,5.21-.56,7.28-1.67,2.07-1.11,3.78-2.55,5.13-4.3,1.35-1.75,2.37-3.74,3.04-5.97.68-2.23,1.01-4.46,1.01-6.69Z"/><path class="cls-1" d="m186.81,24.48v63.51c0,3.42-.28,6.67-.84,9.73-.56,3.06-1.61,5.73-3.16,8-1.55,2.27-3.66,4.08-6.33,5.43-2.67,1.35-6.15,2.03-10.45,2.03-1.19,0-2.39-.08-3.58-.24-1.19-.16-2.15-.32-2.87-.48l1.2-12.18c.64.16,1.31.28,2.03.36.72.08,1.35.12,1.91.12,1.67,0,3.02-.32,4.06-.96,1.03-.64,1.83-1.51,2.39-2.63.55-1.11.91-2.41,1.07-3.88.16-1.47.24-3.04.24-4.71V24.48h14.33Z"/><path class="cls-1" d="m235.64,42.5c-1.27-1.67-3.02-3.12-5.25-4.36s-4.66-1.85-7.28-1.85c-2.31,0-4.42.48-6.33,1.43-1.91.95-2.87,2.55-2.87,4.78s1.05,3.8,3.16,4.72c2.11.92,5.2,1.85,9.25,2.81,2.15.48,4.32,1.12,6.51,1.91s4.18,1.85,5.97,3.16c1.79,1.31,3.24,2.94,4.36,4.9,1.11,1.95,1.67,4.32,1.67,7.1,0,3.5-.66,6.47-1.97,8.9-1.31,2.43-3.06,4.4-5.25,5.91s-4.74,2.61-7.64,3.28c-2.91.68-5.91,1.01-9.01,1.01-4.46,0-8.79-.82-13.01-2.45-4.22-1.63-7.72-3.96-10.51-6.98l9.43-8.84c1.59,2.07,3.66,3.78,6.21,5.13,2.55,1.35,5.37,2.03,8.48,2.03,1.03,0,2.09-.12,3.16-.36,1.07-.24,2.07-.61,2.98-1.13.91-.52,1.65-1.21,2.21-2.09.55-.88.83-1.95.83-3.22,0-2.39-1.09-4.1-3.28-5.13-2.19-1.03-5.48-2.07-9.85-3.1-2.15-.48-4.24-1.09-6.27-1.85-2.03-.76-3.84-1.75-5.43-2.98-1.59-1.23-2.87-2.76-3.82-4.6-.96-1.83-1.43-4.1-1.43-6.81,0-3.18.66-5.93,1.97-8.24,1.31-2.31,3.04-4.2,5.19-5.67,2.15-1.47,4.58-2.57,7.28-3.28,2.71-.72,5.49-1.08,8.36-1.08,4.14,0,8.18.72,12.12,2.15,3.94,1.43,7.06,3.62,9.37,6.57l-9.31,8.24Z"/><path class="cls-1" d="m151.03,72.41l8.53-2.58,1.68,5.16-8.5,2.9,5.27,7.48-4.45,3.23-5.55-7.35-5.41,7.15-4.32-3.29,5.27-7.22-8.56-3.09,1.68-5.16,8.6,2.77v-8.9h5.75v8.9h0Z"/><path class="cls-1" d="m121.56,45.43c-1.47-3.3-3.52-6.09-6.15-8.36-2.63-2.27-5.71-4-9.25-5.19-3.54-1.19-7.38-1.79-11.52-1.79-1.51,0-3.2.08-5.07.24-1.87.16-3.48.44-4.83.84l.83-18.27h34.5V0h-48.11l-1.43,46.2c1.27-.63,2.72-1.23,4.36-1.79,1.63-.56,3.3-1.05,5.01-1.49,1.71-.44,3.46-.78,5.25-1.02,1.79-.24,3.48-.36,5.07-.36,2.31,0,4.58.26,6.81.78,2.23.52,4.24,1.43,6.03,2.75s3.24,3.05,4.36,5.19c1.11,2.15,1.67,4.85,1.67,8.12,0,2.55-.42,4.84-1.25,6.86-.83,2.03-1.97,3.72-3.4,5.07-1.43,1.36-3.1,2.39-5.02,3.1-1.91.72-3.94,1.08-6.09,1.08-3.82,0-7.12-1.02-9.91-3.04-2.79-2.03-4.78-4.72-5.97-8.06l-.16.06-10.37,9.72c2.1,3.42,4.8,6.28,8.14,8.55,4.85,3.3,10.82,4.96,17.91,4.96,4.22,0,8.2-.68,11.94-2.03,3.74-1.35,7-3.3,9.79-5.85,2.79-2.54,4.99-5.67,6.63-9.37,1.63-3.7,2.45-7.9,2.45-12.6,0-4.3-.74-8.1-2.21-11.4Z"/></svg>