<?xml version="1.0" encoding="UTF-8"?><svg id="Layer_2" xmlns="http://www.w3.org/2000/svg" viewBox="0 0 688 532"><defs><style>.cls-1,.cls-2{stroke-width:0px;}.cls-2{fill:#fbdbe9;}</style></defs><g id="Layer_1-2"><path class="cls-2" d="m20.74,530c-10.33,0-18.74-8.41-18.74-18.74V20.74C2,10.41,10.41,2,20.74,2h646.52c10.33,0,18.74,8.41,18.74,18.74v490.52c0,10.33-8.41,18.74-18.74,18.74H20.74ZM31,55c-6.07,0-11,4.93-11,11v435c0,6.07,4.93,11,11,11h626c6.07,0,11-4.93,11-11V66c0-6.07-4.93-11-11-11H31Zm53.5-30c-3.31,0-6,2.69-6,6s2.69,6,6,6,6-2.69,6-6-2.69-6-6-6Zm-22.5,0c-3.31,0-6,2.69-6,6s2.69,6,6,6,6-2.69,6-6-2.69-6-6-6Zm-22.5,0c-3.31,0-6,2.69-6,6s2.69,6,6,6,6-2.69,6-6-2.69-6-6-6Z"/><path class="cls-1" d="m667.26,3c9.78,0,17.74,7.96,17.74,17.74v490.52c0,9.78-7.96,17.74-17.74,17.74H20.74c-9.78,0-17.74-7.96-17.74-17.74V20.74C3,10.96,10.96,3,20.74,3h646.52M84.5,38c3.86,0,7-3.14,7-7s-3.14-7-7-7-7,3.14-7,7,3.14,7,7,7m-22.5,0c3.86,0,7-3.14,7-7s-3.14-7-7-7-7,3.14-7,7,3.14,7,7,7m-22.5,0c3.86,0,7-3.14,7-7s-3.14-7-7-7-7,3.14-7,7,3.14,7,7,7m-8.5,475h626c6.62,0,12-5.38,12-12V66c0-6.62-5.38-12-12-12H31c-6.62,0-12,5.38-12,12v435c0,6.62,5.38,12,12,12M667.26,1H20.74C9.84,1,1,9.84,1,20.74v490.52c0,10.9,8.84,19.74,19.74,19.74h646.52c10.9,0,19.74-8.84,19.74-19.74V20.74c0-10.9-8.84-19.74-19.74-19.74h0ZM84.5,36c-2.76,0-5-2.24-5-5s2.24-5,5-5,5,2.24,5,5-2.24,5-5,5h0Zm-22.5,0c-2.76,0-5-2.24-5-5s2.24-5,5-5,5,2.24,5,5-2.24,5-5,5h0Zm-22.5,0c-2.76,0-5-2.24-5-5s2.24-5,5-5,5,2.24,5,5-2.24,5-5,5h0Zm-8.5,475c-5.52,0-10-4.48-10-10V66c0-5.52,4.48-10,10-10h626c5.52,0,10,4.48,10,10v435c0,5.52-4.48,10-10,10H31Z"/></g></svg>